<svg width="32" height="32" viewBox="0 0 32 32" fill="none" xmlns="http://www.w3.org/2000/svg">
<path d="M10.6674 32C13.6114 32 16.0008 29.6106 16.0008 26.6666V21.3333H10.6674C7.72338 21.3333 5.33398 23.7226 5.33398 26.6666C5.33398 29.6106 7.72338 32 10.6674 32Z" fill="#0ACF83"/>
<path d="M5.33398 15.9999C5.33398 13.0559 7.72338 10.6665 10.6674 10.6665H16.0008V21.3331H10.6674C7.72338 21.3333 5.33398 18.9439 5.33398 15.9999Z" fill="#A259FF"/>
<path d="M5.33398 5.33338C5.33398 2.38938 7.72338 0 10.6674 0H16.0008V10.6666H10.6674C7.72338 10.6666 5.33398 8.27738 5.33398 5.33338Z" fill="#F24E1E"/>
<path d="M16 0H21.3334C24.2774 0 26.6668 2.38938 26.6668 5.33338C26.6668 8.27738 24.2774 10.6666 21.3334 10.6666H16V0Z" fill="#FF7262"/>
<path d="M26.6668 15.9999C26.6668 18.9439 24.2774 21.3333 21.3334 21.3333C18.3894 21.3333 16 18.9439 16 15.9999C16 13.0559 18.3894 10.6665 21.3334 10.6665C24.2774 10.6665 26.6668 13.0559 26.6668 15.9999Z" fill="#1ABCFE"/>
</svg>
