<svg width="33" height="32" viewBox="0 0 33 32" fill="none" xmlns="http://www.w3.org/2000/svg">
<path d="M16.5 2C8.765 2 2.5 8.265 2.5 16C2.5 22.195 6.5075 27.4275 12.0725 29.2825C12.7725 29.405 13.035 28.985 13.035 28.6175C13.035 28.285 13.0175 27.1825 13.0175 26.01C9.5 26.6575 8.59 25.1525 8.31 24.365C8.1525 23.9625 7.47 22.72 6.875 22.3875C6.385 22.125 5.685 21.4775 6.8575 21.46C7.96 21.4425 8.7475 22.475 9.01 22.895C10.27 25.0125 12.2825 24.4175 13.0875 24.05C13.21 23.14 13.5775 22.5275 13.98 22.1775C10.865 21.8275 7.61 20.62 7.61 15.265C7.61 13.7425 8.1525 12.4825 9.045 11.5025C8.905 11.1525 8.415 9.7175 9.185 7.7925C9.185 7.7925 10.3575 7.425 13.035 9.2275C14.155 8.9125 15.345 8.755 16.535 8.755C17.725 8.755 18.915 8.9125 20.035 9.2275C22.7125 7.4075 23.885 7.7925 23.885 7.7925C24.655 9.7175 24.165 11.1525 24.025 11.5025C24.9175 12.4825 25.46 13.725 25.46 15.265C25.46 20.6375 22.1875 21.8275 19.0725 22.1775C19.58 22.615 20.0175 23.455 20.0175 24.7675C20.0175 26.64 20 28.145 20 28.6175C20 28.985 20.2625 29.4225 20.9625 29.2825C23.7418 28.3443 26.1568 26.5581 27.8677 24.1753C29.5786 21.7926 30.4992 18.9334 30.5 16C30.5 8.265 24.235 2 16.5 2Z" fill="#F3725C"/>
</svg>
