<svg width="32" height="32" viewBox="0 0 32 32" fill="none" xmlns="http://www.w3.org/2000/svg">
<path d="M25.9534 8.58103C22.2803 7.50105 18.5307 8.80855 16.4024 11.9179L16.0007 12.5028L16 12.5021L13.2544 16.4941L11.7968 18.6449C10.6003 20.3906 8.7295 20.5921 7.37075 20.1891C6.01848 19.7909 4.57174 18.6161 4.57174 16.5166C4.57174 14.4156 6.01848 13.2401 7.37219 12.842C7.74433 12.7317 8.15542 12.6664 8.58093 12.6664C9.70458 12.6664 10.9277 13.1186 11.7968 14.3868L12.5771 15.5258L15.3149 11.5268C13.1455 8.70041 9.56827 7.53897 6.04661 8.58244C2.37422 9.66452 0 12.7795 0 16.5166C0 20.253 2.37422 23.3665 6.04661 24.4493C8.3213 25.122 10.6248 24.8741 12.5555 23.8496C12.5793 27.572 9.96133 28.9827 7.51715 28.9293C5.55547 28.8865 4.25368 28.4574 2.7442 27.2609L0.995988 29.7375C2.9584 31.1602 5.16241 32 7.66788 32C12.5887 32 17.0378 29.135 16.0793 20.4124L18.7471 16.5145L20.2054 14.3861C21.4004 12.6397 23.2676 12.4382 24.6278 12.8413C25.9822 13.2394 27.429 14.4149 27.429 16.5159C27.429 18.6154 25.9822 19.7902 24.6278 20.1883C23.2784 20.59 21.4018 20.3913 20.2054 18.6442L19.4236 17.5024L16.6779 21.4944C18.318 23.6389 20.7722 24.8236 23.3945 24.8236C24.2369 24.8236 25.0966 24.7021 25.9541 24.45C29.6265 23.3658 32 20.2522 32 16.5159C32.0007 12.7781 29.6272 9.66452 25.9534 8.58103Z" fill="#00AC77"/>
<path d="M30.1072 0.808826L27.2411 4.96483C25.7041 7.19392 22.5798 7.80185 20.2637 6.32255L23.1297 2.16655C24.6668 -0.0631421 27.791 -0.671076 30.1072 0.808826Z" fill="#00AC77"/>
</svg>
